# xmcd CD database file
#
# Track frame offsets:
#	182
#	12420
#	25007
#
# Disc length: 584 seconds
#
# Revision: 2
# Processed by: cddbd v1.5.1PL0 Copyright (c) Steve Scherf et al.
# Submitted via: CDex 1.51
#
DISCID=17024603
DTITLE=Buffalo Tom - Tangerine
DYEAR=1995
DGENRE=Rock
TTITLE0=Tangerine
TTITLE1=Breathe
TTITLE2=The Spider And The Fly
EXTD=YEAR: 1995
EXTT0=
EXTT1=
EXTT2=
PLAYORDER=
